<svg width="375" height="667" xmlns="http://www.w3.org/2000/svg">
  <!-- Background -->
  <rect width="375" height="667" fill="#ffffff"/>
  
  <!-- Border -->
  <rect x="0" y="0" width="375" height="667" fill="none" stroke="#333" stroke-width="3" rx="20"/>
  
  <!-- Header -->
  <rect x="3" y="3" width="369" height="60" fill="#e1f5ff" stroke="#333" stroke-width="2"/>
  <text x="187" y="30" font-family="Arial, sans-serif" font-size="14" font-weight="bold" text-anchor="middle">Sprint 2024-Q1 Estimation</text>
  <text x="187" y="50" font-family="Arial, sans-serif" font-size="12" fill="#666" text-anchor="middle">Participants: 6</text>
  
  <!-- Tabs -->
  <g id="tabs">
    <rect x="3" y="63" width="123" height="40" fill="#ffffff" stroke="#333" stroke-width="2"/>
    <rect x="3" y="100" width="123" height="3" fill="#2196F3"/>
    <text x="64" y="88" font-family="Arial, sans-serif" font-size="14" font-weight="bold" text-anchor="middle">Voting</text>
    
    <rect x="126" y="63" width="123" height="40" fill="#e0e0e0" stroke="#333" stroke-width="2"/>
    <text x="187" y="88" font-family="Arial, sans-serif" font-size="14" font-weight="bold" text-anchor="middle">Users</text>
    
    <rect x="249" y="63" width="123" height="40" fill="#e0e0e0" stroke="#333" stroke-width="2"/>
    <text x="310" y="88" font-family="Arial, sans-serif" font-size="14" font-weight="bold" text-anchor="middle">Chat</text>
  </g>
  
  <!-- Content area -->
  <g id="content" transform="translate(15, 115)">
    <!-- Voting results area with cards surrounding table -->
    <rect x="0" y="0" width="345" height="320" fill="#fff9c4" stroke="#333" stroke-width="2" rx="4"/>
    <text x="172" y="20" font-family="Arial, sans-serif" font-size="12" font-weight="bold" text-anchor="middle">Voting Results (After Reveal)</text>
    
    <!-- Table representation (central circle) -->
    <ellipse cx="172" cy="150" rx="50" ry="40" fill="#e0e0e0" stroke="#666" stroke-width="3"/>
    <text x="172" y="145" font-family="Arial, sans-serif" font-size="12" font-weight="bold" text-anchor="middle">Representative:</text>
    <text x="172" y="162" font-family="Arial, sans-serif" font-size="18" font-weight="bold" text-anchor="middle">8</text>
    
    <!-- Cards surrounding the table in circular arrangement -->
    <!-- Card: Alice (8) - top -->
    <g transform="translate(157, 50)">
      <rect x="-18" y="-25" width="36" height="50" fill="#f0f0f0" stroke="#333" stroke-width="2" rx="4"/>
      <text x="0" y="0" font-family="Arial, sans-serif" font-size="16" font-weight="bold" text-anchor="middle">8</text>
      <text x="0" y="15" font-family="Arial, sans-serif" font-size="8" text-anchor="middle">Alice</text>
    </g>
    
    <!-- Card: Bob (5) - top-left -->
    <g transform="translate(85, 80)">
      <rect x="-18" y="-25" width="36" height="50" fill="#ffcc80" stroke="#333" stroke-width="2" rx="4"/>
      <text x="0" y="0" font-family="Arial, sans-serif" font-size="16" font-weight="bold" text-anchor="middle">5</text>
      <text x="0" y="15" font-family="Arial, sans-serif" font-size="8" text-anchor="middle">Bob</text>
    </g>
    
    <!-- Card: Carol (13) - top-right -->
    <g transform="translate(259, 80)">
      <rect x="-18" y="-25" width="36" height="50" fill="#ffcc80" stroke="#333" stroke-width="2" rx="4"/>
      <text x="0" y="0" font-family="Arial, sans-serif" font-size="16" font-weight="bold" text-anchor="middle">13</text>
      <text x="0" y="15" font-family="Arial, sans-serif" font-size="8" text-anchor="middle">Carol</text>
    </g>
    
    <!-- Card: Dave (8) - bottom-left -->
    <g transform="translate(85, 220)">
      <rect x="-18" y="-25" width="36" height="50" fill="#f0f0f0" stroke="#333" stroke-width="2" rx="4"/>
      <text x="0" y="0" font-family="Arial, sans-serif" font-size="16" font-weight="bold" text-anchor="middle">8</text>
      <text x="0" y="15" font-family="Arial, sans-serif" font-size="8" text-anchor="middle">Dave</text>
    </g>
    
    <!-- Card: Eve (5) - left -->
    <g transform="translate(50, 150)">
      <rect x="-18" y="-25" width="36" height="50" fill="#ffcc80" stroke="#333" stroke-width="2" rx="4"/>
      <text x="0" y="0" font-family="Arial, sans-serif" font-size="16" font-weight="bold" text-anchor="middle">5</text>
      <text x="0" y="15" font-family="Arial, sans-serif" font-size="8" text-anchor="middle">Eve</text>
    </g>
    
    <!-- Card: Frank (3) - bottom-right -->
    <g transform="translate(259, 220)">
      <rect x="-18" y="-25" width="36" height="50" fill="#ffcc80" stroke="#333" stroke-width="2" rx="4"/>
      <text x="0" y="0" font-family="Arial, sans-serif" font-size="16" font-weight="bold" text-anchor="middle">3</text>
      <text x="0" y="15" font-family="Arial, sans-serif" font-size="8" text-anchor="middle">Frank</text>
    </g>
    
    <!-- Voting panel with dropdown -->
    <rect x="0" y="330" width="345" height="95" fill="#e3f2fd" stroke="#333" stroke-width="2" rx="4"/>
    <text x="10" y="352" font-family="Arial, sans-serif" font-size="12" font-weight="bold">Voting Panel</text>
    
    <!-- Dropdown select box -->
    <g transform="translate(10, 362)">
      <rect x="0" y="0" width="325" height="45" fill="#ffffff" stroke="#333" stroke-width="2" rx="4"/>
      <text x="10" y="28" font-family="Arial, sans-serif" font-size="14">Select your vote...</text>
      <!-- Dropdown arrow -->
      <polygon points="300,18 310,18 305,25" fill="#666"/>
    </g>
    
    <!-- Control buttons -->
    <g transform="translate(40, 440)">
      <rect x="0" y="0" width="125" height="40" fill="#fce4ec" stroke="#333" stroke-width="2" rx="4"/>
      <text x="62" y="27" font-family="Arial, sans-serif" font-size="14" font-weight="bold" text-anchor="middle">Reveal</text>
      
      <rect x="135" y="0" width="125" height="40" fill="#fce4ec" stroke="#333" stroke-width="2" rx="4"/>
      <text x="197" y="27" font-family="Arial, sans-serif" font-size="14" font-weight="bold" text-anchor="middle">Reset</text>
    </g>
  </g>
</svg>
